<svg width="285" height="254" viewBox="0 0 285 254" fill="none" xmlns="http://www.w3.org/2000/svg">
<path d="M278.129 52.1479C273.722 41.9716 267.37 32.7645 259.415 25.0111C251.459 17.2416 242.093 11.0712 231.788 6.82303C221.126 2.39716 209.686 0.13576 198.133 0.168066C181.914 0.168066 166.099 4.59394 152.359 12.945C149.069 14.9479 145.942 17.1447 142.993 19.5353C140.028 17.1447 136.917 14.9479 133.628 12.945C119.871 4.59394 104.056 0.168066 87.8529 0.168066C76.1865 0.168066 64.8765 2.39716 54.1823 6.82303C43.8607 11.0874 34.56 17.2093 26.5717 25.0111C18.6158 32.7483 12.2641 41.9716 7.85675 52.1479C3.28739 62.7441 0.954102 73.9865 0.954102 85.5519C0.954102 96.4713 3.19017 107.843 7.6299 119.408C11.3405 129.084 16.6714 139.115 23.4768 149.243C34.2683 165.266 49.0944 181.984 67.5015 198.929C98.0125 227.018 128.232 246.418 129.512 247.209L137.306 252.185C140.757 254.381 145.197 254.381 148.648 252.185L156.442 247.209C157.722 246.386 187.909 227.018 218.452 198.929C236.859 181.984 251.686 165.266 262.477 149.243C269.282 139.115 274.646 129.084 278.324 119.408C282.764 107.843 285 96.4713 285 85.5519C285.032 73.9865 282.699 62.7441 278.129 52.1479Z" fill="white"/>
</svg>
